<?xml version="1.0" encoding="UTF-8"?>
<svg id="Capa_2" data-name="Capa 2" xmlns="http://www.w3.org/2000/svg" xmlns:xlink="http://www.w3.org/1999/xlink" viewBox="0 0 368.5 368.5">
  <defs>
    <style>
      .cls-1 {
        fill: url(#Degradado_sin_nombre_81);
      }

      .cls-1, .cls-2 {
        stroke-width: 0px;
      }

      .cls-2 {
        fill: none;
      }
    </style>
    <linearGradient id="Degradado_sin_nombre_81" data-name="Degradado sin nombre 81" x1="73.54" y1="181.88" x2="308.16" y2="181.88" gradientUnits="userSpaceOnUse">
      <stop offset="0" stop-color="#d1a246"/>
      <stop offset=".29" stop-color="#f2c866"/>
      <stop offset=".5" stop-color="#cea556"/>
      <stop offset=".74" stop-color="#f2c866"/>
      <stop offset="1" stop-color="#c28f36"/>
    </linearGradient>
  </defs>
  <g id="Capa_1-2" data-name="Capa 1">
    <path class="cls-1" d="M299.46,267.53l-9.4-4.2-39.09-44.59c15.95-4.95,28.43-12.02,37.49-21.18,9.06-9.15,13.56-21.48,13.56-37.01,0-29.94-13.47-51.9-40.39-65.92-26.95-14.02-65.5-21.03-115.71-21.03h-44.26c-9.7,0-16.71,1.09-21.03,3.23-3.87,2.39-5.8,5.71-5.8,10.03,0,3.44.97,5.83,2.9,7.1l9.37,4.53c4.53,1.93,7.34,3.78,8.4,5.5,1.09,1.72,1.63,4.2,1.63,7.43v142.54c0,5.59-2.48,9.37-7.43,11.3l-11.96,5.17c-2.81,1.51-4.2,4.2-4.2,8.1,0,4.53,1.24,7.58,3.72,9.21,2.48,1.6,8.67,2.42,18.58,2.42h57.86c9.27,0,15.41-.76,18.43-2.27,2.57-1.93,3.87-5.05,3.87-9.37,0-3.66-1.6-6.46-4.83-8.4l-10.36-4.86c-5.8-2.57-8.7-6.34-8.7-11.3v-27.46c3.23,1.42,7.52,2.51,12.9,3.2h28.13l18.1,17.79c6.04,6.04,10.03,10.66,11.96,13.9-1.72,1.93-4.96,4.32-9.7,7.1-4.74,2.81-7.1,6.13-7.1,10.03,0,4.53,1.24,7.58,3.72,9.21,2.48,1.6,8.67,2.42,18.58,2.42h57.86c9.49,0,15.44-.82,17.92-2.42,2.48-1.63,3.72-4.68,3.72-9.21,0-5.38-2.9-9.06-8.7-11ZM230.61,178.34c-2.81,6.43-8.34,12.11-16.65,16.95-8.28,4.86-19.21,7.28-32.81,7.28-8.82,0-15.89-1.24-21.15-3.72-5.29-2.48-7.92-6.62-7.92-12.45v-74.02c0-4.74,1.75-7.76,5.32-9.03,3.56-1.3,9.97-1.96,19.24-1.96,16.34,0,30.15,3.5,41.36,10.51,11.21,7.01,16.8,20.85,16.8,41.54,0,10.12-1.39,18.43-4.2,24.89Z"/>
    <circle class="cls-2" cx="184.25" cy="184.25" r="184.25"/>
  </g>
</svg>